<?xml version="1.0" standalone="no"?>
<!DOCTYPE svg PUBLIC "-//W3C//DTD SVG 20010904//EN"
 "http://www.w3.org/TR/2001/REC-SVG-20010904/DTD/svg10.dtd">
<svg version="1.0" xmlns="http://www.w3.org/2000/svg"
 width="64.000000pt" height="64.000000pt" viewBox="0 0 64.000000 64.000000"
 preserveAspectRatio="xMidYMid meet">

<g transform="translate(0.000000,64.000000) scale(0.100000,-0.100000)"
fill="#000000" stroke="none">
<path d="M220 624 c-142 -52 -229 -183 -218 -327 26 -318 443 -407 597 -127
33 60 36 71 36 150 0 78 -3 91 -34 148 -58 106 -144 161 -265 168 -50 3 -84
-1 -116 -12z m190 -169 c0 -32 -2 -35 -30 -35 -25 0 -30 -4 -30 -25 0 -21 5
-25 30 -25 28 0 30 -3 30 -35 0 -32 -2 -35 -30 -35 l-30 0 0 -75 0 -75 -35 0
-35 0 0 75 c0 73 -1 75 -25 75 -22 0 -25 4 -25 35 0 31 3 35 25 35 21 0 25 5
25 31 0 59 31 87 98 88 30 1 32 -1 32 -34z"/>
</g>
</svg>
