<?xml version="1.0" standalone="no"?>
<!DOCTYPE svg PUBLIC "-//W3C//DTD SVG 20010904//EN"
 "http://www.w3.org/TR/2001/REC-SVG-20010904/DTD/svg10.dtd">
<svg version="1.0" xmlns="http://www.w3.org/2000/svg"
 width="64.000000pt" height="64.000000pt" viewBox="0 0 64.000000 64.000000"
 preserveAspectRatio="xMidYMid meet">

<g transform="translate(0.000000,64.000000) scale(0.100000,-0.100000)"
fill="#000000" stroke="none">
<path d="M223 622 c-62 -22 -126 -65 -149 -99 -16 -25 -15 -26 36 -78 l52 -53
32 35 c55 64 129 80 201 43 l40 -20 49 49 c58 58 56 66 -28 108 -68 35 -161
41 -233 15z"/>
<path d="M16 410 c-9 -30 -16 -70 -16 -90 0 -20 7 -60 16 -90 l16 -53 59 59
c41 41 59 66 59 84 0 18 -18 43 -59 84 l-59 59 -16 -53z"/>
<path d="M307 384 c-12 -12 -8 -119 5 -132 7 -7 42 -12 87 -12 74 0 74 0 56
-20 -18 -20 -18 -22 35 -75 l55 -55 18 22 c48 61 70 122 71 198 l1 75 -161 3
c-88 1 -163 -1 -167 -4z"/>
<path d="M109 194 c-51 -51 -51 -52 -34 -78 24 -36 100 -84 164 -103 72 -21
152 -13 221 22 l53 27 -54 53 -54 54 -40 -11 c-63 -17 -113 -3 -162 46 l-42
43 -52 -53z"/>
</g>
</svg>
